# xmcd CD database file
#
# Track frame offsets:
#	225
#	11282
#	22657
#	33940
#	47874
#	60460
#	75550
#	88061
#	101831
#	117000
#	130390
#	145793
#	162350
#	179251
#	197031
#	216912
#	231591
#	247483
#	262027
#	274926
#	290248
#	304413
#	318151
#	330541
#
# Disc length: 4590 seconds
#
# Revision: 1
# Processed by: cddbd v1.5.2PL0 Copyright (c) Steve Scherf et al.
# Submitted via: CDex 1.70beta2
#
DISCID=6511eb18
DTITLE=Paul Whiteman - Volume 4 - Japanese Mammy - Dutton Vocalion
DYEAR=1925
DGENRE=Jazz
TTITLE0=That Certain Feeling
TTITLE1=Sweet and Low Down
TTITLE2=Avalon
TTITLE3=Dardanella
TTITLE4=Dancing Tambourine
TTITLE5=The Birth of the Blues
TTITLE6=Countess Maritza-Intro-Play Gypsies--Dance Gypsies-Dear Home of Mine-Goodbye
TTITLE7=Let's Do It (Let's Fall in Love)
TTITLE8=Japanese Mammy
TTITLE9=Lonely Melody
TTITLE10=Nola
TTITLE11=Song of India
TTITLE12=Liebestraum
TTITLE13=Cole Porter Medley-Intro-You've Got that Thing-What is this Thing Called Love-You Do Something to Me
TTITLE14=Night and Day
TTITLE15=Dancing Shadows
TTITLE16=Willow Weep For Me
TTITLE17=Till Tomorrow
TTITLE18=Deep Forest
TTITLE19=Serenade to a Wealthy Widow
TTITLE20=Say it with Music
TTITLE21=Lady of the Evening
TTITLE22=Soft Lights and Sweet Music
TTITLE23=A Pretty Girl is Like a Melody
EXTD=YEAR: 1925
EXTT0=
EXTT1=
EXTT2=
EXTT3=
EXTT4=
EXTT5=
EXTT6=
EXTT7=
EXTT8=
EXTT9=
EXTT10=
EXTT11=
EXTT12=
EXTT13=
EXTT14=
EXTT15=
EXTT16=
EXTT17=
EXTT18=
EXTT19=
EXTT20=
EXTT21=
EXTT22=
EXTT23=
PLAYORDER=
